<svg width="0" height="0" class="hidden">
  <symbol xmlns="http://www.w3.org/2000/svg" viewBox="0 0 16 8" id="arrow-right">
    <path d="M15.354 4.354a.5.5 0 000-.708L12.172.464a.5.5 0 10-.708.708L14.293 4l-2.829 2.828a.5.5 0 10.708.708l3.182-3.182zM0 4.5h15v-1H0v1z"></path>
  </symbol>
  <symbol xmlns="http://www.w3.org/2000/svg" viewBox="0 0 15 15" id="clock">
      <path d="M7.5 0C3.365 0 0 3.365 0 7.5S3.365 15 7.5 15 15 11.635 15 7.5 11.635 0 7.5 0zm0 14.063A6.57 6.57 0 01.938 7.5 6.57 6.57 0 017.5.938 6.57 6.57 0 0114.063 7.5 6.57 6.57 0 017.5 14.063z"></path>
      <path d="M7.969 2.813H7.03v4.881l2.95 2.95.663-.663-2.675-2.675V2.812z"></path>
  </symbol>
  <symbol xmlns="http://www.w3.org/2000/svg" viewBox="0 0 15 15" id="phone">
            <path d="M8.75.75h-2.5a.25.25 0 000 .5h2.5a.25.25 0 000-.5zm1.75 0h-.25a.25.25 0 000 .5h.25a.25.25 0 000-.5zm-2.69 12h-.62a.69.69 0 00-.69.69v.12c0 .38.31.69.69.69h.62c.38 0 .69-.31.69-.69v-.12a.69.69 0 00-.69-.69zm.19.81a.19.19 0 01-.19.19h-.62a.19.19 0 01-.19-.19v-.12a.19.19 0 01.19-.19h.62a.19.19 0 01.19.19v.12z"></path>
            <path d="M10.847 0H4.154a.905.905 0 00-.904.904v13.192c0 .498.406.904.904.904h6.693a.905.905 0 00.904-.903V.904A.905.905 0 0010.847 0zm.404 14.096a.404.404 0 01-.404.404H4.154a.404.404 0 01-.403-.403V.904A.401.401 0 014.154.5h6.693c.223 0 .404.181.404.404v13.192z"></path>
            <path d="M11.5 1.5h-8a.25.25 0 00-.25.25v10.5c0 .138.112.25.25.25h8a.25.25 0 00.25-.25V1.75a.25.25 0 00-.25-.25zM11.25 12h-7.5V2h7.5v10z"></path>
  </symbol>
  <symbol xmlns="http://www.w3.org/2000/svg" viewBox="0 0 23 22" id="email">
            <path d="M17.594 1.875H5.406C4.631 1.875 4 2.505 4 3.281v8.438c0 .775.63 1.406 1.406 1.406h12.188c.775 0 1.406-.63 1.406-1.406V3.28c0-.775-.63-1.406-1.406-1.406zm0 .938c.063 0 .124.013.18.036L11.5 8.286 5.227 2.849a.467.467 0 01.18-.037h12.187zm0 9.374H5.406a.47.47 0 01-.468-.468v-7.88l6.255 5.422a.468.468 0 00.614 0l6.255-5.422v7.88a.47.47 0 01-.468.469z"></path>
  </symbol>
    <symbol xmlns="http://www.w3.org/2000/svg" viewBox="0 0 15 15" id="vk">
            <path d="M14.866 10.854c-.04-.067-.29-.609-1.49-1.723-1.256-1.166-1.087-.977.426-2.993.922-1.229 1.29-1.979 1.175-2.3-.11-.305-.788-.224-.788-.224l-2.254.013s-.166-.023-.291.051c-.121.073-.199.242-.199.242s-.357.95-.833 1.76c-1.005 1.705-1.407 1.795-1.57 1.689-.382-.247-.287-.992-.287-1.521 0-1.653.25-2.342-.488-2.52-.246-.06-.426-.099-1.053-.105-.805-.009-1.486.002-1.872.19-.256.127-.454.407-.333.423.149.02.486.09.665.335.232.314.224 1.02.224 1.02s.133 1.946-.31 2.188c-.306.166-.723-.173-1.618-1.72-.459-.793-.806-1.67-.806-1.67s-.066-.163-.185-.25a.941.941 0 00-.347-.14l-2.143.014s-.322.01-.44.149c-.105.124-.008.381-.008.381s1.678 3.926 3.577 5.905c1.743 1.814 3.722 1.695 3.722 1.695h.896s.27-.03.409-.179c.127-.137.122-.394.122-.394s-.017-1.202.541-1.38c.55-.174 1.258 1.163 2.007 1.678.566.389.996.303.996.303l2.004-.028s1.048-.064.551-.889z"></path>
    </symbol>
    <symbol xmlns="http://www.w3.org/2000/svg" viewBox="0 0 15 15" id="facebook">
            <path d="M11.25.003L9.304 0C7.12 0 5.707 1.449 5.707 3.691v1.703H3.75a.306.306 0 00-.306.306v2.466c0 .169.137.305.306.305h1.956v6.223c0 .169.137.306.306.306h2.551a.306.306 0 00.306-.306V8.471h2.287a.306.306 0 00.306-.305V5.7a.306.306 0 00-.305-.306H8.87V3.95c0-.694.166-1.046 1.069-1.046h1.31a.306.306 0 00.306-.306V.309a.306.306 0 00-.305-.306z"></path>
    </symbol>
    <symbol xmlns="http://www.w3.org/2000/svg" viewBox="0 0 23 23" id="instagram">
            <path d="M14.313 0H8.686A4.688 4.688 0 004 4.688v5.625A4.69 4.69 0 008.688 15h5.624C16.901 15 19 12.9 19 10.312V4.689C19 2.099 16.9 0 14.312 0zm3.28 10.313a3.285 3.285 0 01-3.28 3.28H8.686a3.285 3.285 0 01-3.28-3.28V4.686a3.285 3.285 0 013.28-3.28h5.626a3.285 3.285 0 013.28 3.28v5.625z"></path>
            <path d="M11.5 3.75a3.75 3.75 0 100 7.5 3.75 3.75 0 000-7.5zm0 6.094A2.347 2.347 0 019.156 7.5 2.346 2.346 0 0111.5 5.156 2.346 2.346 0 0113.844 7.5 2.347 2.347 0 0111.5 9.844zm4.031-5.876a.5.5 0 100-.999.5.5 0 000 1z"></path>
    </symbol>

</svg>